<svg xmlns="http://www.w3.org/2000/svg" width="40" height="38" viewBox="0 0 40 38">
    <path fill="#FFF" fill-rule="evenodd" d="M20 0C8.95 0 0 8.723 0 19.482c0 8.61 5.73 15.91 13.675 18.484 1 .184 1.367-.42 1.367-.936 0-.463-.017-1.689-.025-3.313-5.564 1.175-6.737-2.614-6.737-2.614-.91-2.248-2.225-2.85-2.225-2.85-1.812-1.207.14-1.183.14-1.183 2.008.136 3.063 2.008 3.063 2.008 1.784 2.979 4.682 2.118 5.825 1.62.18-1.26.695-2.117 1.267-2.605-4.442-.487-9.11-2.163-9.11-9.627 0-2.126.775-3.864 2.058-5.227-.225-.493-.9-2.474.175-5.157 0 0 1.675-.522 5.5 1.998 1.6-.433 3.3-.648 5-.658 1.7.01 3.4.225 5 .658 3.8-2.52 5.475-1.998 5.475-1.998 1.075 2.683.4 4.664.2 5.157 1.275 1.363 2.05 3.1 2.05 5.227 0 7.484-4.675 9.132-9.125 9.61.7.585 1.35 1.78 1.35 3.606 0 2.607-.025 4.702-.025 5.334 0 .511.35 1.12 1.375.926C34.275 35.384 40 28.078 40 19.482 40 8.723 31.045 0 20 0"/>
</svg>
