<svg xmlns="http://www.w3.org/2000/svg" xmlns:xlink="http://www.w3.org/1999/xlink" width="39" height="39" viewBox="0 0 39 39">
    <defs>
        <path id="prefix__a" d="M0 0.09L38.91 0.09 38.91 38.906 0 38.906z"/>
    </defs>
    <g fill="none" fill-rule="evenodd">
        <g transform="translate(0 .005)">
            <mask id="prefix__b" fill="#fff">
                <use xlink:href="#prefix__a"/>
            </mask>
            <path fill="#FFF" d="M35.262 26.776c0 4.682-3.818 8.49-8.511 8.49H12.159c-4.693 0-8.511-3.808-8.511-8.49V12.22c0-4.683 3.818-8.491 8.511-8.491h14.592c4.693 0 8.511 3.808 8.511 8.49v14.557zM26.751.09H12.159C5.445.09 0 5.52 0 12.22v14.556c0 6.698 5.445 12.13 12.16 12.13h14.59c6.715 0 12.16-5.432 12.16-12.13V12.22C38.91 5.52 33.465.09 26.75.09z" mask="url(#prefix__b)"/>
        </g>
        <path fill="#FFF" d="M19.455 25.567c-3.351 0-6.08-2.722-6.08-6.065 0-3.345 2.729-6.065 6.08-6.065s6.08 2.72 6.08 6.065c0 3.343-2.729 6.065-6.08 6.065m0-15.769c-5.372 0-9.727 4.345-9.727 9.704 0 5.36 4.355 9.704 9.727 9.704s9.728-4.345 9.728-9.704c0-5.359-4.356-9.704-9.728-9.704M29.912 7.777c.716 0 1.297.58 1.297 1.293 0 .714-.58 1.293-1.297 1.293-.716 0-1.296-.579-1.296-1.293s.58-1.293 1.296-1.293"/>
    </g>
</svg>
