<svg xmlns="http://www.w3.org/2000/svg" xmlns:xlink="http://www.w3.org/1999/xlink" width="40" height="37" viewBox="0 0 40 37">
    <defs>
        <path id="prefix__a" d="M0 0.021L7.781 0.021 7.781 25.574 0 25.574z"/>
        <path id="prefix__c" d="M0 0.045L7.781 0.045 7.781 7.325 0 7.325z"/>
        <path id="prefix__e" d="M0.014 0.074L26.817 0.074 26.817 26.299 0.014 26.299z"/>
    </defs>
    <g fill="none" fill-rule="evenodd">
        <g transform="translate(0 11.381)">
            <mask id="prefix__b" fill="#fff">
                <use xlink:href="#prefix__a"/>
            </mask>
            <path fill="#FFF" d="M1.296 25.574h5.189c.715 0 1.296-.587 1.296-1.311V1.331c0-.724-.58-1.31-1.296-1.31H1.296C.58.02 0 .607 0 1.33v22.932c0 .724.58 1.31 1.296 1.31" mask="url(#prefix__b)"/>
        </g>
        <g transform="translate(0 .046)">
            <mask id="prefix__d" fill="#fff">
                <use xlink:href="#prefix__c"/>
            </mask>
            <path fill="#FFF" d="M1.296 7.325h5.189c.715 0 1.296-.587 1.296-1.31v-4.66c0-.723-.58-1.31-1.296-1.31H1.296C.58.045 0 .632 0 1.355v4.66c0 .723.58 1.31 1.296 1.31" mask="url(#prefix__d)"/>
        </g>
        <g transform="translate(13.094 10.656)">
            <mask id="prefix__f" fill="#fff">
                <use xlink:href="#prefix__e"/>
            </mask>
            <path fill="#FFF" d="M24.865 3.406c-.73-.97-1.804-1.768-3.226-2.394-1.421-.625-2.99-.938-4.707-.938-3.485 0-6.438 1.345-8.86 4.035-.481.536-.831.419-.831-.305V2.057c0-.724-.58-1.31-1.297-1.31H1.31c-.716 0-1.296.586-1.296 1.31v22.931c0 .724.58 1.311 1.296 1.311h5.188c.716 0 1.296-.587 1.296-1.31v-7.976c0-3.322.199-5.6.595-6.831.397-1.232 1.131-2.221 2.202-2.968 1.07-.747 2.28-1.12 3.627-1.12 1.052 0 1.952.261 2.7.784.748.523 1.288 1.255 1.62 2.198.332.943.498 3.02.498 6.23v9.682c0 .724.58 1.31 1.296 1.31h5.189c.716 0 1.296-.586 1.296-1.31V12.002c0-2.296-.143-4.06-.43-5.292-.285-1.232-.793-2.333-1.522-3.304" mask="url(#prefix__f)"/>
        </g>
    </g>
</svg>
