<svg width="63" height="17" viewBox="0 0 63 17" fill="none" xmlns="http://www.w3.org/2000/svg">
<path d="M7.106 1.3C8.408 1.3 9.535 1.517 10.487 1.951C11.453 2.385 12.195 3.001 12.713 3.799C13.231 4.597 13.49 5.542 13.49 6.634C13.49 7.712 13.231 8.657 12.713 9.469C12.195 10.267 11.453 10.883 10.487 11.317C9.535 11.737 8.408 11.947 7.106 11.947H4.145V16H0.743V1.3H7.106ZM6.917 9.175C7.939 9.175 8.716 8.958 9.248 8.524C9.78 8.076 10.046 7.446 10.046 6.634C10.046 5.808 9.78 5.178 9.248 4.744C8.716 4.296 7.939 4.072 6.917 4.072H4.145V9.175H6.917ZM26.4543 10.393C26.4543 10.435 26.4333 10.729 26.3913 11.275H17.8443C17.9983 11.975 18.3623 12.528 18.9363 12.934C19.5103 13.34 20.2243 13.543 21.0783 13.543C21.6663 13.543 22.1843 13.459 22.6323 13.291C23.0943 13.109 23.5213 12.829 23.9133 12.451L25.6563 14.341C24.5923 15.559 23.0383 16.168 20.9943 16.168C19.7203 16.168 18.5933 15.923 17.6133 15.433C16.6333 14.929 15.8773 14.236 15.3453 13.354C14.8133 12.472 14.5473 11.471 14.5473 10.351C14.5473 9.245 14.8063 8.251 15.3243 7.369C15.8563 6.473 16.5773 5.78 17.4873 5.29C18.4113 4.786 19.4403 4.534 20.5743 4.534C21.6803 4.534 22.6813 4.772 23.5773 5.248C24.4733 5.724 25.1733 6.41 25.6773 7.306C26.1953 8.188 26.4543 9.217 26.4543 10.393ZM20.5953 7.012C19.8533 7.012 19.2303 7.222 18.7263 7.642C18.2223 8.062 17.9143 8.636 17.8023 9.364H23.3673C23.2553 8.65 22.9473 8.083 22.4433 7.663C21.9393 7.229 21.3233 7.012 20.5953 7.012ZM39.8633 0.417999V16H36.7343V14.698C35.9223 15.678 34.7463 16.168 33.2063 16.168C32.1423 16.168 31.1763 15.93 30.3083 15.454C29.4543 14.978 28.7823 14.299 28.2923 13.417C27.8023 12.535 27.5573 11.513 27.5573 10.351C27.5573 9.189 27.8023 8.167 28.2923 7.285C28.7823 6.403 29.4543 5.724 30.3083 5.248C31.1763 4.772 32.1423 4.534 33.2063 4.534C34.6483 4.534 35.7753 4.989 36.5873 5.899V0.417999H39.8633ZM33.7733 13.48C34.5993 13.48 35.2853 13.2 35.8313 12.64C36.3773 12.066 36.6503 11.303 36.6503 10.351C36.6503 9.399 36.3773 8.643 35.8313 8.083C35.2853 7.509 34.5993 7.222 33.7733 7.222C32.9333 7.222 32.2403 7.509 31.6943 8.083C31.1483 8.643 30.8753 9.399 30.8753 10.351C30.8753 11.303 31.1483 12.066 31.6943 12.64C32.2403 13.2 32.9333 13.48 33.7733 13.48ZM45.7444 6.193C46.1364 5.647 46.6614 5.234 47.3194 4.954C47.9914 4.674 48.7614 4.534 49.6294 4.534V7.558C49.2654 7.53 49.0204 7.516 48.8944 7.516C47.9564 7.516 47.2214 7.782 46.6894 8.314C46.1574 8.832 45.8914 9.616 45.8914 10.666V16H42.6154V4.702H45.7444V6.193ZM56.5707 16.168C55.3807 16.168 54.3097 15.923 53.3577 15.433C52.4197 14.929 51.6847 14.236 51.1527 13.354C50.6207 12.472 50.3547 11.471 50.3547 10.351C50.3547 9.231 50.6207 8.23 51.1527 7.348C51.6847 6.466 52.4197 5.78 53.3577 5.29C54.3097 4.786 55.3807 4.534 56.5707 4.534C57.7607 4.534 58.8247 4.786 59.7627 5.29C60.7007 5.78 61.4357 6.466 61.9677 7.348C62.4997 8.23 62.7657 9.231 62.7657 10.351C62.7657 11.471 62.4997 12.472 61.9677 13.354C61.4357 14.236 60.7007 14.929 59.7627 15.433C58.8247 15.923 57.7607 16.168 56.5707 16.168ZM56.5707 13.48C57.4107 13.48 58.0967 13.2 58.6287 12.64C59.1747 12.066 59.4477 11.303 59.4477 10.351C59.4477 9.399 59.1747 8.643 58.6287 8.083C58.0967 7.509 57.4107 7.222 56.5707 7.222C55.7307 7.222 55.0377 7.509 54.4917 8.083C53.9457 8.643 53.6727 9.399 53.6727 10.351C53.6727 11.303 53.9457 12.066 54.4917 12.64C55.0377 13.2 55.7307 13.48 56.5707 13.48Z" fill="white"/>
</svg>
