<svg xmlns="http://www.w3.org/2000/svg" width="40" height="33" viewBox="0 0 40 33">
    <path fill="#FFF" fill-rule="evenodd" d="M40 3.907c-1.487.662-3.072 1.101-4.725 1.315 1.7-1.031 2.998-2.65 3.608-4.603-1.585.96-3.335 1.638-5.2 2.016C32.178 1.008 30.033 0 27.693 0c-4.54 0-8.196 3.742-8.196 8.329 0 .66.056 1.294.19 1.898C12.87 9.89 6.838 6.572 2.785 1.518c-.708 1.246-1.122 2.673-1.122 4.209 0 2.883 1.462 5.44 3.642 6.92-1.318-.026-2.61-.414-3.705-1.026v.091c0 4.047 2.842 7.408 6.57 8.182-.667.185-1.395.274-2.15.274-.525 0-1.055-.03-1.553-.142 1.063 3.297 4.078 5.722 7.663 5.8-2.79 2.216-6.332 3.552-10.168 3.552-.672 0-1.317-.03-1.962-.115C3.633 31.642 7.938 33 12.58 33c15.09 0 23.34-12.692 23.34-23.694 0-.368-.012-.723-.03-1.076 1.628-1.173 2.995-2.638 4.11-4.323"/>
</svg>
