<svg xmlns="http://www.w3.org/2000/svg" xmlns:xlink="http://www.w3.org/1999/xlink" width="40" height="40" viewBox="0 0 40 40">
    <defs>
        <path id="prefix__a" d="M0 0L39.921 0 39.921 39.919 0 39.919z"/>
    </defs>
    <g fill="none" fill-rule="evenodd">
        <mask id="prefix__b" fill="#fff">
            <use xlink:href="#prefix__a"/>
        </mask>
        <path fill="#FFF" d="M29.106 23.922c-.497-.248-2.939-1.443-3.394-1.608-.455-.165-.786-.247-1.117.247-.331.495-1.283 1.608-1.573 1.938-.29.33-.58.371-1.076.124-.497-.247-2.097-.77-3.994-2.453-1.476-1.311-2.473-2.93-2.763-3.424-.29-.495-.002-.737.218-1.009.538-.664 1.076-1.361 1.242-1.69.165-.33.082-.62-.042-.867s-1.117-2.68-1.53-3.67c-.404-.963-.814-.833-1.119-.848-.289-.014-.62-.017-.951-.017-.332 0-.87.123-1.325.618-.455.495-1.738 1.69-1.738 4.124 0 2.432 1.78 4.783 2.028 5.113.248.33 3.502 5.322 8.484 7.463 1.185.51 2.11.813 2.832 1.04 1.19.377 2.272.324 3.128.197.954-.142 2.938-1.196 3.352-2.35.414-1.155.414-2.145.29-2.351-.124-.206-.456-.33-.952-.577m-9.062 12.314h-.007c-2.964-.002-5.872-.794-8.409-2.292l-.603-.357-6.253 1.633 1.67-6.067-.394-.622c-1.653-2.618-2.527-5.644-2.525-8.75.003-9.065 7.415-16.44 16.527-16.44 4.413.001 8.561 1.714 11.68 4.821 3.12 3.108 4.836 7.239 4.835 11.632-.004 9.066-7.415 16.442-16.521 16.442M34.104 5.8C30.352 2.062 25.361.002 20.044 0 9.088 0 .17 8.873.167 19.78c-.002 3.486.913 6.89 2.653 9.89L0 39.92l10.537-2.751c2.904 1.576 6.172 2.406 9.499 2.407h.008c10.955 0 19.873-8.874 19.877-19.78.002-5.286-2.064-10.256-5.817-13.995" mask="url(#prefix__b)"/>
    </g>
</svg>
